<svg width="24" height="25" viewBox="0 0 24 25" fill="none" xmlns="http://www.w3.org/2000/svg">
<path d="M17.8 2.6L7.87 5.09C6.42 5.45 4.95 6.92 4.59 8.37L2.1 18.3C1.35 21.3 3.19 23.15 6.2 22.4L16.13 19.92C17.57 19.56 19.05 18.08 19.41 16.64L21.9 6.7C22.65 3.7 20.8 1.85 17.8 2.6Z" stroke="white" stroke-width="1.5" stroke-linecap="round" stroke-linejoin="round"/>
<path d="M12 16C13.933 16 15.5 14.433 15.5 12.5C15.5 10.567 13.933 9 12 9C10.067 9 8.5 10.567 8.5 12.5C8.5 14.433 10.067 16 12 16Z" stroke="white" stroke-width="1.5" stroke-linecap="round" stroke-linejoin="round"/>
</svg>
