<svg width="14" height="14" viewBox="0 0 14 14" fill="none" xmlns="http://www.w3.org/2000/svg">
<path d="M5.24935 12.8332H8.74935C11.666 12.8332 12.8327 11.6666 12.8327 8.7499V5.2499C12.8327 2.33323 11.666 1.16656 8.74935 1.16656H5.24935C2.33268 1.16656 1.16602 2.33323 1.16602 5.2499V8.7499C1.16602 11.6666 2.33268 12.8332 5.24935 12.8332Z" stroke="white" stroke-width="1.5" stroke-linecap="round" stroke-linejoin="round"/>
<path d="M9.04102 5.6875C9.52426 5.6875 9.91602 5.29575 9.91602 4.8125C9.91602 4.32925 9.52426 3.9375 9.04102 3.9375C8.55777 3.9375 8.16602 4.32925 8.16602 4.8125C8.16602 5.29575 8.55777 5.6875 9.04102 5.6875Z" stroke="white" stroke-width="1.5" stroke-miterlimit="10" stroke-linecap="round" stroke-linejoin="round"/>
<path d="M4.95898 5.6875C5.44223 5.6875 5.83398 5.29575 5.83398 4.8125C5.83398 4.32925 5.44223 3.9375 4.95898 3.9375C4.47574 3.9375 4.08398 4.32925 4.08398 4.8125C4.08398 5.29575 4.47574 5.6875 4.95898 5.6875Z" stroke="white" stroke-width="1.5" stroke-miterlimit="10" stroke-linecap="round" stroke-linejoin="round"/>
<path d="M4.9 7.75812H9.1C9.39167 7.75812 9.625 7.99145 9.625 8.28312C9.625 9.73562 8.4525 10.9081 7 10.9081C5.5475 10.9081 4.375 9.73562 4.375 8.28312C4.375 7.99145 4.60833 7.75812 4.9 7.75812Z" stroke="white" stroke-width="1.5" stroke-miterlimit="10" stroke-linecap="round" stroke-linejoin="round"/>
</svg>
