<svg width="24" height="25" viewBox="0 0 24 25" fill="none" xmlns="http://www.w3.org/2000/svg">
<path d="M21.66 10.94L20.68 15.12C19.84 18.73 18.18 20.19 15.06 19.89C14.56 19.85 14.02 19.76 13.44 19.62L11.76 19.22C7.59 18.23 6.3 16.17 7.28 11.99L8.26 7.80001C8.46 6.95001 8.7 6.21001 9 5.60001C10.17 3.18001 12.16 2.53001 15.5 3.32001L17.17 3.71001C21.36 4.69001 22.64 6.76001 21.66 10.94Z" stroke="white" stroke-width="1.5" stroke-linecap="round" stroke-linejoin="round"/>
<path d="M15.06 19.89C14.44 20.31 13.66 20.66 12.71 20.97L11.13 21.49C7.16 22.77 5.07 21.7 3.78 17.73L2.5 13.78C1.22 9.81001 2.28 7.71001 6.25 6.43001L7.83 5.91001C8.24 5.78001 8.63 5.67001 9 5.60001C8.7 6.21001 8.46 6.95001 8.26 7.80001L7.28 11.99C6.3 16.17 7.59 18.23 11.76 19.22L13.44 19.62C14.02 19.76 14.56 19.85 15.06 19.89Z" stroke="white" stroke-width="1.5" stroke-linecap="round" stroke-linejoin="round"/>
<path d="M12.64 9.03L17.49 10.26" stroke="white" stroke-width="1.5" stroke-linecap="round" stroke-linejoin="round"/>
<path d="M11.66 12.9L14.56 13.64" stroke="white" stroke-width="1.5" stroke-linecap="round" stroke-linejoin="round"/>
</svg>
