<svg width="24" height="24" viewBox="0 0 24 24" fill="none" xmlns="http://www.w3.org/2000/svg">
<path d="M9.16055 10.8702C9.06055 10.8602 8.94055 10.8602 8.83055 10.8702C6.45055 10.7902 4.56055 8.84021 4.56055 6.44021C4.56055 3.99021 6.54055 2.00021 9.00055 2.00021C11.4505 2.00021 13.4405 3.99021 13.4405 6.44021C13.4305 8.84021 11.5405 10.7902 9.16055 10.8702Z" stroke="white" stroke-width="1.5" stroke-linecap="round" stroke-linejoin="round"/>
<path d="M16.4093 3.99979C18.3493 3.99979 19.9093 5.56979 19.9093 7.49979C19.9093 9.38979 18.4093 10.9298 16.5393 10.9998C16.4593 10.9898 16.3693 10.9898 16.2793 10.9998" stroke="white" stroke-width="1.5" stroke-linecap="round" stroke-linejoin="round"/>
<path d="M4.1607 14.5598C1.7407 16.1798 1.7407 18.8198 4.1607 20.4298C6.9107 22.2698 11.4207 22.2698 14.1707 20.4298C16.5907 18.8098 16.5907 16.1698 14.1707 14.5598C11.4307 12.7298 6.9207 12.7298 4.1607 14.5598Z" stroke="white" stroke-width="1.5" stroke-linecap="round" stroke-linejoin="round"/>
<path d="M18.3398 20.0002C19.0598 19.8502 19.7398 19.5602 20.2998 19.1302C21.8598 17.9602 21.8598 16.0302 20.2998 14.8602C19.7498 14.4402 19.0798 14.1602 18.3698 14.0002" stroke="white" stroke-width="1.5" stroke-linecap="round" stroke-linejoin="round"/>
</svg>
