<svg width="24" height="25" viewBox="0 0 24 25" fill="none" xmlns="http://www.w3.org/2000/svg">
<path d="M7.5 5.5H16.5C17.12 5.5 17.67 5.52 18.16 5.59C20.79 5.88 21.5 7.12 21.5 10.5V14.5C21.5 17.88 20.79 19.12 18.16 19.41C17.67 19.48 17.12 19.5 16.5 19.5H7.5C6.88 19.5 6.33 19.48 5.84 19.41C3.21 19.12 2.5 17.88 2.5 14.5V10.5C2.5 7.12 3.21 5.88 5.84 5.59C6.33 5.52 6.88 5.5 7.5 5.5Z" stroke="#3157D8" stroke-width="1.5" stroke-linecap="round" stroke-linejoin="round"/>
<path d="M4.5 2.5H19.5" stroke="#3157D8" stroke-width="1.5" stroke-linecap="round" stroke-linejoin="round"/>
<path d="M5 22.5H20" stroke="#3157D8" stroke-width="1.5" stroke-linecap="round" stroke-linejoin="round"/>
</svg>
