<svg width="24" height="25" viewBox="0 0 24 25" fill="none" xmlns="http://www.w3.org/2000/svg">
<path d="M18 19.36H17.24C16.44 19.36 15.68 19.67 15.12 20.23L13.41 21.92C12.63 22.69 11.36 22.69 10.58 21.92L8.87 20.23C8.31 19.67 7.54 19.36 6.75 19.36H6C4.34 19.36 3 18.03 3 16.39V5.47C3 3.83 4.34 2.5 6 2.5H18C19.66 2.5 21 3.83 21 5.47V16.38C21 18.02 19.66 19.36 18 19.36Z" stroke="white" stroke-width="1.5" stroke-miterlimit="10" stroke-linecap="round" stroke-linejoin="round"/>
<path d="M12.07 9.44999C12.03 9.44999 11.97 9.44999 11.92 9.44999C10.87 9.40999 10.04 8.55999 10.04 7.49999C10.04 6.41999 10.91 5.54999 11.99 5.54999C13.07 5.54999 13.94 6.42999 13.94 7.49999C13.95 8.55999 13.12 9.41999 12.07 9.44999Z" stroke="white" stroke-width="1.5" stroke-linecap="round" stroke-linejoin="round"/>
<path d="M9.25 12.46C7.92 13.35 7.92 14.8 9.25 15.69C10.76 16.7 13.24 16.7 14.75 15.69C16.08 14.8 16.08 13.35 14.75 12.46C13.24 11.46 10.77 11.46 9.25 12.46Z" stroke="white" stroke-width="1.5" stroke-linecap="round" stroke-linejoin="round"/>
</svg>
